<svg width="11" height="18" viewBox="0 0 11 18" fill="none" xmlns="http://www.w3.org/2000/svg">
<path d="M3.44078 9.922C3.37478 9.922 1.92278 9.922 1.26278 9.922C0.910781 9.922 0.800781 9.79 0.800781 9.46C0.800781 8.58 0.800781 7.678 0.800781 6.798C0.800781 6.446 0.932781 6.336 1.26278 6.336H3.44078C3.44078 6.27 3.44078 4.994 3.44078 4.4C3.44078 3.52 3.59478 2.684 4.03478 1.914C4.49678 1.122 5.15678 0.594 5.99278 0.286C6.54277 0.0879998 7.09277 0 7.68677 0H9.84277C10.1508 0 10.2828 0.132 10.2828 0.44V2.948C10.2828 3.256 10.1508 3.388 9.84277 3.388C9.24877 3.388 8.65477 3.388 8.06077 3.41C7.46677 3.41 7.15877 3.696 7.15877 4.312C7.13677 4.972 7.15877 5.61 7.15877 6.292H9.71077C10.0628 6.292 10.1948 6.424 10.1948 6.776V9.438C10.1948 9.79 10.0848 9.9 9.71077 9.9C8.91877 9.9 7.22477 9.9 7.15877 9.9V17.072C7.15877 17.446 7.04877 17.578 6.65277 17.578C5.72878 17.578 4.82678 17.578 3.90278 17.578C3.57278 17.578 3.44078 17.446 3.44078 17.116C3.44078 14.806 3.44078 9.988 3.44078 9.922V9.922Z" fill="#4B7159"/>
</svg>
