<svg width="19" height="18" viewBox="0 0 19 18" fill="none" xmlns="http://www.w3.org/2000/svg">
<path d="M13.7809 0.000976562H4.78114C2.30642 0.000976562 0.28125 2.02615 0.28125 4.50087V13.5011C0.28125 15.9751 2.30642 18.001 4.78114 18.001H13.7809C16.2556 18.001 18.2808 15.9751 18.2808 13.5011V4.50087C18.2808 2.02615 16.2556 0.000976562 13.7809 0.000976562ZM16.7808 13.5011C16.7808 15.1548 15.4356 16.5009 13.7809 16.5009H4.78114C3.12721 16.5009 1.78129 15.1548 1.78129 13.5011V4.50087C1.78129 2.84672 3.12721 1.50101 4.78114 1.50101H13.7809C15.4356 1.50101 16.7808 2.84672 16.7808 4.50087V13.5011Z" fill="#4B7159"/>
<path fill-rule="evenodd" clip-rule="evenodd" d="M1.281 9.50098C0.881001 4.30098 2.44767 2.00098 3.281 1.50098L7.78101 1.00098L14.781 1.50098L16.281 2.50098L17.281 4.50098V9.00098V12.501L16.781 15.501L15.781 16.501L13.281 17.501H10.781L5.78101 17.001C4.94767 17.001 3.181 16.901 2.78101 16.501C2.74529 16.4653 2.70958 16.4321 2.67386 16.3989C2.20958 15.9678 1.74529 15.5367 1.281 9.50098ZM9.28102 4.50098C6.79527 4.50098 4.78113 6.51534 4.78113 9.00087C4.78113 11.4855 6.79527 13.5012 9.28102 13.5012C11.7661 13.5012 13.7809 11.4855 13.7809 9.00087C13.7809 6.51534 11.7661 4.50098 9.28102 4.50098ZM9.28102 12.0012C7.62436 12.0012 6.28116 10.658 6.28116 9.00087C6.28116 7.34377 7.62436 6.00101 9.28102 6.00101C10.9377 6.00101 12.2809 7.34377 12.2809 9.00087C12.2809 10.658 10.9377 12.0012 9.28102 12.0012ZM15.2816 4.12546C15.2816 4.74677 14.7779 5.25043 14.1566 5.25043C13.5353 5.25043 13.0316 4.74677 13.0316 4.12546C13.0316 3.50416 13.5353 3.00049 14.1566 3.00049C14.7779 3.00049 15.2816 3.50416 15.2816 4.12546Z" fill="#4B7159"/>
</svg>
